<svg xmlns="http://www.w3.org/2000/svg" width="140" height="140" id="airbnb"><path fill="#fa7b7a" d="M122.288 86.72c-.038-.092-.038-.092-.08-.186-.196-.432-.196-.432-.389-.867a1405.592 1405.592 0 0 0-27.08-56.664 861.84 861.84 0 0 1-.855-1.682l-.017-.035c-1.547-3.059-2.262-4.445-3.188-6.145-1.704-3.096-3.438-5.51-5.533-7.486-3.688-3.58-8.673-5.762-13.854-6.092l-2.256-.003c-5.442.27-10.598 2.541-14.389 6.305-1.986 1.916-3.647 4.26-5.312 7.275-.932 1.701-1.7 3.188-3.164 6.08l-.171.342c-.333.658-.479.947-.671 1.318a1420.122 1420.122 0 0 0-18.45 37.879c-4.392 9.4-7.489 16.17-10.473 22.934-1.845 4.195-2.884 7.332-3.346 10.664-.963 6.426.418 13.203 3.823 18.779 2.931 4.836 7.329 8.719 12.442 10.965a27.659 27.659 0 0 0 12.715 2.291c5.469-.297 10.961-2.217 16.051-5.428 4.062-2.543 7.774-5.742 11.918-10.084a101.662 101.662 0 0 1-1.835-1.967l3.668.004c-.619.682-1.234 1.334-1.833 1.963 3.75 3.941 7.161 6.947 10.855 9.4 5.029 3.371 10.424 5.486 15.87 6.012 6.33.67 12.866-.941 18.155-4.512 4.652-3.125 8.33-7.729 10.395-13.016a28.18 28.18 0 0 0 1.948-10.771c-.038-3.588-.817-7.25-2.229-10.908-.699-1.816-1.312-3.248-2.715-6.365zm-52.252 15.037-1.977-1.516c.677-.896 1.32-1.766 1.94-2.621a112.21 112.21 0 0 1-1.566-2.248l-.213-.311c-.065-.09-.065-.09-.128-.184-2.229-3.328-4.034-6.52-5.447-9.703-1.349-3.074-2.192-5.852-2.529-8.535-.29-2.486-.129-4.625.549-6.412a8.735 8.735 0 0 1 3.42-4.314c3.893-2.559 9.443-2.227 12.868.787 1.637 1.422 2.711 3.598 2.982 5.979.344 3.045-.23 6.359-1.597 10.086-1.812 4.847-4.494 9.531-8.338 14.855.728 1.018 1.3 1.76 1.944 2.533l-1.908 1.604zm44.317 7.424v.006c-1.096 3.84-3.733 7.207-7.156 9.137-3.019 1.721-6.664 2.338-10.144 1.746-4.145-.656-8.219-2.797-12.458-6.273-2.079-1.703-4.088-3.648-6.367-6.117-.42.557-.84 1.109-1.284 1.678l-.109-3.205c.475.535.935 1.039 1.394 1.527 4.087-5.398 7.133-10.125 9.533-15.037 2.964-6.09 4.637-11.771 4.811-17.418.121-4.24-.714-8.324-2.521-11.832-2.438-4.832-6.822-8.639-11.984-10.488-4.674-1.699-9.882-1.863-14.686-.465-4.62 1.33-8.754 4.156-11.574 7.98-2.456 3.299-3.933 7.4-4.271 11.684-.45 5.35.658 10.91 3.045 16.801 2.597 6.307 6.299 12.359 11.225 18.754.451-.498.901-1.002 1.333-1.514l-.047 3.174c-.443-.557-.862-1.107-1.286-1.66a65.192 65.192 0 0 1-5.456 5.354c-4.228 3.645-8.234 5.959-12.351 6.865-3.625.83-7.438.387-10.611-1.248-3.783-1.914-6.694-5.545-7.788-9.693-.822-2.998-.684-6.326.354-9.439.61-1.826 1.23-3.299 2.682-6.533.06-.133.06-.133.12-.271.264-.59.436-.977.608-1.373a1398.625 1398.625 0 0 1 26.67-55.838c.204-.393.358-.711.717-1.418l.038-.07c1.674-3.318 2.45-4.828 3.441-6.648 1.327-2.402 2.494-3.965 3.905-5.057 1.689-1.346 3.814-2.068 5.902-2.021a9.298 9.298 0 0 1 6.113 2.234c1.507 1.275 2.666 2.959 4.209 5.893 2.215 4.244 4.146 8.074 7.683 15.186.314.637.314.637.633 1.275.035.066.035.066.069.139a1363.91 1363.91 0 0 1 22.719 48.127c.096.225.175.396.359.814l.134.311c1.356 3.074 1.911 4.471 2.397 6.203.789 2.874.8 5.945-.001 8.73z"></path><path fill="#fa7b7a" d="M68.176 114.913a98.623 98.623 0 0 0 1.835 1.967c.599-.629 1.214-1.281 1.833-1.963l-3.668-.004zM68.06 100.241l1.977 1.516 1.908-1.604A40.654 40.654 0 0 1 70 97.62c-.62.856-1.264 1.725-1.94 2.621zM76.943 109.356c.444-.568.864-1.121 1.284-1.678a71.695 71.695 0 0 1-1.394-1.527l.11 3.205z"></path><path fill="#dd4b4b" d="m68.434 95.372-.213-.311c-.065-.09-.065-.09-.128-.184-2.229-3.328-4.034-6.52-5.447-9.703-1.349-3.074-2.192-5.852-2.529-8.535-.29-2.486-.129-4.625.549-6.412a8.735 8.735 0 0 1 3.42-4.314c3.893-2.559 9.443-2.227 12.868.787 1.637 1.422 2.711 3.598 2.982 5.979.302 2.672-.145 5.57-1.17 8.756 6.06-18.85 1.364-28.303-5.694-29.727a23.843 23.843 0 0 0-9.691.73c-4.62 1.33-8.754 4.156-11.574 7.98-2.456 3.299-3.933 7.4-4.271 11.684-.45 5.35.658 10.91 3.045 16.801 2.582 6.277 6.268 12.303 11.157 18.664 2.683-2.787 5.432-6.145 8.209-10.023-.435-.607-.921-1.305-1.513-2.172z"></path><path fill="none" stroke="#33363a" stroke-linecap="round" stroke-linejoin="round" stroke-miterlimit="10" stroke-width="3" d="m68.434 95.372-.213-.311c-.065-.09-.065-.09-.128-.184-2.229-3.328-4.034-6.52-5.447-9.703-1.349-3.074-2.192-5.852-2.529-8.535-.29-2.486-.129-4.625.549-6.412a8.735 8.735 0 0 1 3.42-4.314c3.893-2.559 9.443-2.227 12.868.787 1.637 1.422 2.711 3.598 2.982 5.979.302 2.672-.145 5.57-1.17 8.756 6.06-18.85 1.364-28.303-5.694-29.727a23.843 23.843 0 0 0-9.691.73c-4.62 1.33-8.754 4.156-11.574 7.98-2.456 3.299-3.933 7.4-4.271 11.684-.45 5.35.658 10.91 3.045 16.801 2.582 6.277 6.268 12.303 11.157 18.664 2.683-2.787 5.432-6.145 8.209-10.023-.435-.607-.921-1.305-1.513-2.172z"></path><path fill="#fa7b7a" d="M127.234 103.985v.016zM63.138 106.144a57.693 57.693 0 0 1-1.333 1.514c.424.553.843 1.104 1.286 1.66l.047-3.174zM68.176 114.913a98.623 98.623 0 0 0 1.835 1.967c.599-.629 1.214-1.281 1.833-1.963l-3.668-.004zM76.943 109.356c.444-.568.864-1.121 1.284-1.678a71.695 71.695 0 0 1-1.394-1.527l.11 3.205zM127.234 103.985v.016z"></path><path fill="#ba3a3a" d="M77.742 84.179c1.997-4.064 3.233-9.689 3.233-15.904 0-12.395-4.912-15.934-10.972-15.934-6.063 0-10.979 3.539-10.979 15.934 0 5.998 1.158 11.436 3.037 15.461-.998-2.508-1.661-4.84-1.945-7.096-.29-2.486-.129-4.625.549-6.412a8.735 8.735 0 0 1 3.42-4.314c3.893-2.559 9.443-2.227 12.868.787 1.637 1.422 2.711 3.598 2.982 5.979.344 3.045-.23 6.359-1.597 10.086-.177.473-.404.942-.596 1.413z"></path><path fill="none" stroke="#33363a" stroke-linecap="round" stroke-linejoin="round" stroke-miterlimit="10" stroke-width="3" d="M77.742 84.179c1.997-4.064 3.233-9.689 3.233-15.904 0-12.395-4.912-15.934-10.972-15.934-6.063 0-10.979 3.539-10.979 15.934 0 5.998 1.158 11.436 3.037 15.461-.998-2.508-1.661-4.84-1.945-7.096-.29-2.486-.129-4.625.549-6.412a8.735 8.735 0 0 1 3.42-4.314c3.893-2.559 9.443-2.227 12.868.787 1.637 1.422 2.711 3.598 2.982 5.979.344 3.045-.23 6.359-1.597 10.086-.177.473-.404.942-.596 1.413z"></path><path fill="#dd4b4b" d="M126.515 110.651c.495-2.184.759-4.418.72-6.658-.038-3.588-.817-7.25-2.229-10.908-.701-1.816-1.313-3.248-2.717-6.365-.038-.092-.038-.092-.08-.186-.196-.432-.196-.432-.389-.867a1405.592 1405.592 0 0 0-27.08-56.664 861.84 861.84 0 0 1-.855-1.682l-.017-.035c-1.547-3.059-2.262-4.445-3.188-6.145-1.704-3.096-3.438-5.51-5.533-7.486a21.66 21.66 0 0 0-6.316-4.24c-.697.047-2.358-.674-3.152-.369-5.502 2.113-11.099 8.293-17.146 21.51a153.542 153.542 0 0 1 1.696-3.213c1.327-2.402 2.494-3.965 3.905-5.057 1.689-1.346 3.814-2.068 5.902-2.021a9.298 9.298 0 0 1 6.113 2.234c1.507 1.275 2.666 2.959 4.209 5.893 2.215 4.244 4.146 8.074 7.683 15.186.314.637.314.637.633 1.275.035.066.035.066.069.139a1363.91 1363.91 0 0 1 22.719 48.127c.096.225.175.396.359.814l.134.311c1.356 3.074 1.911 4.471 2.397 6.203.79 2.879.802 5.949 0 8.734v.006c-1.096 3.84-3.733 7.207-7.156 9.137-3.019 1.721-6.664 2.338-10.144 1.746-1.301-.205-2.593-.574-3.89-1.068 5.153 2.34 10.542 3.281 15.917 2.414 6.9-1.108 12.836-4.989 17.436-10.765z"></path><path fill="#ba3a3a" d="M122.288 86.72c-.038-.092-.038-.092-.08-.186-.196-.432-.196-.432-.389-.867a1410.932 1410.932 0 0 0-8.33-18.102c.687 5.59 6.675 17.373 6.219 27.602-.6 13.453-5.852 19.762-11.601 22.58-.298.199-.599.4-.911.576-3.019 1.721-6.664 2.338-10.144 1.746a17.078 17.078 0 0 1-2.117-.482c-.201-.027-.396-.059-.579-.088 4.79 1.961 9.761 2.715 14.724 1.916 6.899-1.107 12.835-4.988 17.435-10.764.495-2.184.759-4.418.72-6.658-.038-3.588-.817-7.25-2.229-10.908-.702-1.816-1.315-3.248-2.718-6.365zM94.171 27.882l-.287-.561-.017-.035c-1.547-3.059-2.262-4.445-3.188-6.145-1.704-3.096-3.438-5.51-5.533-7.486a21.66 21.66 0 0 0-6.316-4.24c-.697.047-2.358-.674-3.152-.369-5.502 2.113-11.099 8.293-17.146 21.51a153.542 153.542 0 0 1 1.696-3.213c1.327-2.402 2.494-3.965 3.905-5.057 1.689-1.346 3.814-2.068 5.902-2.021a9.298 9.298 0 0 1 6.113 2.234c1.507 1.275 2.666 2.959 4.209 5.893 2.215 4.244 4.146 8.074 7.683 15.186.314.637.314.637.633 1.275.035.066.035.066.069.139a1413.96 1413.96 0 0 1 6.741 13.803c.205-3.107.317-6.293.317-9.541.002-7.528-.578-14.73-1.629-21.372z"></path><path fill="none" stroke="#33363a" stroke-linecap="round" stroke-linejoin="round" stroke-miterlimit="10" stroke-width="3" d="M126.515 110.651c.495-2.184.759-4.418.72-6.658-.038-3.588-.817-7.25-2.229-10.908-.701-1.816-1.313-3.248-2.717-6.365-.038-.092-.038-.092-.08-.186-.196-.432-.196-.432-.389-.867a1405.592 1405.592 0 0 0-27.08-56.664 861.84 861.84 0 0 1-.855-1.682l-.017-.035c-1.547-3.059-2.262-4.445-3.188-6.145-1.704-3.096-3.438-5.51-5.533-7.486a21.66 21.66 0 0 0-6.316-4.24c-.697.047-2.358-.674-3.152-.369-5.502 2.113-11.099 8.293-17.146 21.51a153.542 153.542 0 0 1 1.696-3.213c1.327-2.402 2.494-3.965 3.905-5.057 1.689-1.346 3.814-2.068 5.902-2.021a9.298 9.298 0 0 1 6.113 2.234c1.507 1.275 2.666 2.959 4.209 5.893 2.215 4.244 4.146 8.074 7.683 15.186.314.637.314.637.633 1.275.035.066.035.066.069.139a1363.91 1363.91 0 0 1 22.719 48.127c.096.225.175.396.359.814l.134.311c1.356 3.074 1.911 4.471 2.397 6.203.79 2.879.802 5.949 0 8.734v.006c-1.096 3.84-3.733 7.207-7.156 9.137-3.019 1.721-6.664 2.338-10.144 1.746-1.301-.205-2.593-.574-3.89-1.068 5.153 2.34 10.542 3.281 15.917 2.414 6.9-1.108 12.836-4.989 17.436-10.765z"></path><path fill="#dd4b4b" d="M16.407 89.692c-1.845 4.195-2.884 7.332-3.346 10.664-.514 3.439-.338 6.977.441 10.381 7.174 11.201 13.692 10.549 22.381 10.549 3.829 0 7.489-.824 10.903-2.252-.927.348-1.856.637-2.789.842-3.625.83-7.438.387-10.611-1.248-3.783-1.914-6.694-5.545-7.788-9.693-.822-2.998-.684-6.326.354-9.439.61-1.826 1.23-3.299 2.682-6.533.06-.133.06-.133.12-.271.264-.59.436-.977.608-1.373a1389.583 1389.583 0 0 1 20.085-42.613"></path><path fill="#ba3a3a" d="M33.387 118.628c-3.783-1.914-6.694-5.545-7.788-9.693-.822-2.998-.684-6.326.354-9.439.205-.617.414-1.193.654-1.807-2.965 5.521-6.649 8.799-10.644 8.799-1.075 0-2.123-.25-3.145-.703.087 1.664.312 3.324.685 4.953 7.174 11.201 12.879 12.094 21.565 12.094 3.831 0 9.268-1.098 11.719-3.797-.927.348-1.856.637-2.789.842-3.625.829-7.438.386-10.611-1.249z"></path><path fill="none" stroke="#33363a" stroke-linecap="round" stroke-linejoin="round" stroke-miterlimit="10" stroke-width="3" d="M12.818 105.784c.087 1.664.312 3.324.685 4.953 7.174 11.201 12.879 12.094 21.565 12.094 3.831 0 9.268-1.098 11.719-3.797-.927.348-1.856.637-2.789.842-3.625.83-7.438.387-10.611-1.248-3.783-1.914-6.694-5.545-7.788-9.693-.822-2.998-.684-6.326.354-9.439.205-.617.414-1.193.654-1.807"></path><path fill="#dd4b4b" d="M84.595 113.796c-2.063-1.689-4.062-3.627-6.323-6.068-.387.479-.774.955-1.18 1.439-.05.064-.095.127-.148.189v-.016a122.612 122.612 0 0 1-2.957 3.406 118.021 118.021 0 0 1-3.941 4.168c2.962 3.111 5.722 5.625 8.571 7.758 1.65-.928 3.16-2.072 4.439-3.488 1.548-1.717 2.672-3.729 3.477-5.896a44.211 44.211 0 0 1-1.938-1.492z"></path><path fill="none" stroke="#33363a" stroke-linecap="round" stroke-linejoin="round" stroke-miterlimit="10" stroke-width="3" d="M86.532 115.288a44.817 44.817 0 0 1-1.938-1.492c-2.063-1.689-4.062-3.627-6.323-6.068-.387.479-.774.955-1.18 1.439-.05.064-.095.127-.148.189v-.016a122.612 122.612 0 0 1-2.957 3.406 118.021 118.021 0 0 1-3.941 4.168c2.962 3.111 5.722 5.625 8.571 7.758"></path><path fill="#dd4b4b" d="M67.569 119.335c-2.04 1.928-4.004 3.639-5.825 5.072 1.934-1.474 3.851-3.15 5.825-5.072zM60.88 125.067c.172-.127.348-.258.518-.389-.176.137-.344.259-.518.389z"></path><path fill="none" stroke="#33363a" stroke-linecap="round" stroke-linejoin="round" stroke-miterlimit="10" stroke-width="3" d="M122.288 86.72c-.038-.092-.038-.092-.08-.186-.196-.432-.196-.432-.389-.867a1184.046 1184.046 0 0 0-5.089-11.123c-1.002-2.172-2.01-4.342-3.023-6.51l-.218-.469.002.01a1404.674 1404.674 0 0 0-18.752-38.572l-.567-1.115-.001-.006-.287-.561-.017-.035c-1.547-3.059-2.262-4.445-3.188-6.145-1.704-3.096-3.438-5.51-5.533-7.486a21.797 21.797 0 0 0-1.432-1.268c-.486-.391-.99-.762-1.508-1.109-.011-.008-.02-.016-.029-.021a22.174 22.174 0 0 0-10.886-3.693l-2.255-.004c-5.442.27-10.598 2.541-14.389 6.305-1.986 1.916-3.647 4.26-5.312 7.275-.932 1.701-1.7 3.188-3.164 6.08l-.171.342c-.333.658-.479.947-.671 1.318a1420.122 1420.122 0 0 0-18.45 37.879c-4.392 9.4-7.489 16.17-10.473 22.934-1.845 4.195-2.884 7.332-3.346 10.664a26.821 26.821 0 0 0-.227 2.176c-.008.123-.021.246-.027.369-.032.619-.037 1.24-.027 1.859.004.26.007.516.017.773.021.508.062 1.016.11 1.521.401 4.252 1.745 8.426 3.978 12.08 2.931 4.836 7.329 8.719 12.442 10.965a27.659 27.659 0 0 0 12.715 2.291c5.469-.297 10.961-2.217 16.051-5.428 4.062-2.543 7.774-5.742 11.918-10.084.122.129.24.248.362.375.286.297.572.594.854.881.225.227.445.447.667.668.163.16.326.324.488.48.286.281.571.555.855.824l.152.143c2.493 2.357 4.917 4.33 7.476 6.029 5.029 3.371 10.424 5.486 15.87 6.012 6.33.67 12.866-.941 18.155-4.512 4.652-3.125 8.33-7.729 10.395-13.016a28.212 28.212 0 0 0 1.917-9.033l.005-.094c.023-.547.036-1.096.026-1.645-.038-3.588-.817-7.25-2.229-10.908-.699-1.814-1.312-3.246-2.715-6.363zm-65.939 26.291c-3.327 2.869-6.519 4.9-9.734 6.082a18.67 18.67 0 0 1-2.616.783c-3.625.83-7.438.387-10.611-1.248-3.783-1.914-6.694-5.545-7.788-9.693-.822-2.998-.684-6.326.354-9.439a26.262 26.262 0 0 1 .347-.99c.099-.27.199-.539.308-.816l-.005.01c.472-1.215 1.066-2.584 2.032-4.736.06-.133.06-.133.12-.271.264-.59.436-.977.608-1.373 1.868-4.146 3.771-8.291 5.688-12.436.698-1.51 1.406-3.021 2.111-4.531a1285.23 1285.23 0 0 1 3.723-7.904c.84-1.771 1.682-3.541 2.531-5.311 1.245-2.598 2.507-5.191 3.771-7.787.754-1.549 1.499-3.096 2.261-4.645l-.004.004c2.171-4.412 4.364-8.822 6.589-13.229.204-.393.358-.711.717-1.418l.038-.07c.724-1.432 1.274-2.52 1.752-3.449a147.814 147.814 0 0 1 1.689-3.199c1.327-2.402 2.494-3.965 3.905-5.057 1.689-1.346 3.814-2.068 5.902-2.021a9.298 9.298 0 0 1 6.113 2.234c1.507 1.275 2.666 2.959 4.209 5.893 2.215 4.244 4.146 8.074 7.683 15.186.314.637.314.637.633 1.275.035.066.035.066.069.139 1.567 3.162 3.111 6.328 4.652 9.496.693 1.428 1.389 2.855 2.078 4.285a1348.355 1348.355 0 0 1 15.988 34.346c.096.225.175.396.359.814l.134.311c1.356 3.074 1.911 4.471 2.397 6.203.79 2.879.802 5.949 0 8.734v.006c-.994 3.488-3.27 6.572-6.241 8.559h-.003c-.299.201-.6.402-.912.578-3.019 1.721-6.664 2.338-10.144 1.746-.405-.062-.811-.154-1.217-.246-.3-.072-.601-.148-.9-.236-.004 0-.007 0-.011-.002l-.173-.049a23 23 0 0 1-1.589-.535l.009.004c-2.2-.84-4.401-2.082-6.64-3.717-.248-.182-.495-.369-.744-.557a45.005 45.005 0 0 1-1.193-.936c-1.795-1.471-3.552-3.15-5.465-5.162-.301-.318-.594-.619-.902-.955 4.087-5.398 7.133-10.125 9.533-15.037 2.964-6.09 4.637-11.771 4.811-17.418.121-4.24-.714-8.324-2.521-11.832-2.438-4.832-6.822-8.639-11.984-10.488A23.456 23.456 0 0 0 72 51.599c-.137-.012-.273-.02-.41-.029a24.26 24.26 0 0 0-1.596-.053c-.238 0-.476-.002-.714.006-.264.008-.527.021-.791.039a22.67 22.67 0 0 0-1.043.088c-.195.021-.39.039-.585.064a25.51 25.51 0 0 0-1.891.332c-.533.115-1.064.242-1.59.395-4.62 1.33-8.754 4.156-11.574 7.98-2.456 3.299-3.933 7.4-4.271 11.684-.45 5.35.658 10.91 3.045 16.801a64.724 64.724 0 0 0 2.152 4.684c.217.428.453.854.681 1.279.183.344.356.688.547 1.031 2.154 3.885 4.759 7.754 7.845 11.76a65.317 65.317 0 0 1-5.456 5.351zm12.513-17.014c-.138-.199-.279-.406-.429-.625l-.213-.311c-.065-.09-.065-.09-.128-.184-2.229-3.328-4.034-6.52-5.447-9.703-.229-.523-.423-1.023-.623-1.529.015.029.025.062.039.09a39.304 39.304 0 0 1-.644-1.738c-.028-.084-.058-.168-.085-.252-.169-.504-.322-1-.462-1.49-.064-.23-.119-.457-.177-.686-.094-.369-.189-.738-.266-1.102a23.763 23.763 0 0 1-.312-1.828c-.29-2.486-.129-4.625.549-6.412a8.735 8.735 0 0 1 3.42-4.314c3.893-2.559 9.443-2.227 12.868.787 1.637 1.422 2.711 3.598 2.982 5.979a15.307 15.307 0 0 1 .088 1.905v.166c-.05 2.084-.491 4.305-1.258 6.686.185-.574.358-1.141.524-1.699-.256.98-.568 1.988-.951 3.029-.178.475-.405.943-.597 1.414.11-.225.21-.473.316-.707-1.807 4.6-4.402 9.084-8.059 14.148-.018-.023-.036-.051-.055-.076h.001c-.322-.456-.675-.96-1.081-1.548z"></path></svg>